HIERARCHY
ROOT Hips
{
	OFFSET 0.000000 0.000000 0.000000
	CHANNELS 6 Xposition Yposition Zposition Zrotation Yrotation Xrotation 
	JOINT LeftUpLeg_virtual
	{
		OFFSET 0.000000 0.000000 0.000000
		CHANNELS 3 Zrotation Yrotation Xrotation
		JOINT LeftUpLeg
		{
			OFFSET 8.479694 -4.795517 -0.379053
			CHANNELS 3 Zrotation Yrotation Xrotation
			JOINT LeftLeg
			{
				OFFSET 0.485052 -32.551468 0.112863
				CHANNELS 3 Zrotation Yrotation Xrotation
				JOINT LeftFoot
				{
					OFFSET 0.438033 -32.635670 -3.012641
					CHANNELS 3 Zrotation Yrotation Xrotation
					JOINT LeftToeBase
					{
						OFFSET 0.970169 -13.225353 11.864223
						CHANNELS 3 Zrotation Yrotation Xrotation
						End Site
						{
							OFFSET 0.000000 0.000000 0.000000
						}
					}
				}
			}
		}
	}
	JOINT RightUpLeg_virtual
	{
		OFFSET 0.000000 0.000000 0.000000
		CHANNELS 3 Zrotation Yrotation Xrotation
		JOINT RightUpLeg
		{
			OFFSET -8.479694 -4.795517 -0.379053
			CHANNELS 3 Zrotation Yrotation Xrotation
			JOINT RightLeg
			{
				OFFSET -0.484100 -32.551483 0.112903
				CHANNELS 3 Zrotation Yrotation Xrotation
				JOINT RightFoot
				{
					OFFSET -0.438985 -32.635651 -3.012681
					CHANNELS 3 Zrotation Yrotation Xrotation
					JOINT RightToeBase
					{
						OFFSET -0.970169 -13.225354 11.864223
						CHANNELS 3 Zrotation Yrotation Xrotation
						End Site
						{
							OFFSET 0.000000 0.000000 0.000000
						}
					}
				}
			}
		}
	}
	JOINT Spine_virtual
	{
		OFFSET 0.000000 0.000000 0.000000
		CHANNELS 3 Zrotation Yrotation Xrotation
		JOINT Spine
		{
			OFFSET 0.000000 7.722015 1.166203
			CHANNELS 3 Zrotation Yrotation Xrotation
			JOINT Spine1
			{
				OFFSET 0.000000 12.024086 0.248766
				CHANNELS 3 Zrotation Yrotation Xrotation
				JOINT Spine2
				{
					OFFSET -0.000000 11.503036 -0.491240
					CHANNELS 3 Zrotation Yrotation Xrotation
					JOINT Neck_virtual
					{
						OFFSET 0.000000 0.000000 0.000000
						CHANNELS 3 Zrotation Yrotation Xrotation
						JOINT Neck
						{
							OFFSET 0.000000 18.430687 -3.123054
							CHANNELS 3 Zrotation Yrotation Xrotation
							JOINT Head
							{
								OFFSET -0.000000 9.051071 1.034021
								CHANNELS 3 Zrotation Yrotation Xrotation
								End Site
								{
									OFFSET 0.000000 0.000000 0.000000
								}
							}
						}
					}
					JOINT LeftShoulder_virtual
					{
						OFFSET 0.000000 0.000000 0.000000
						CHANNELS 3 Zrotation Yrotation Xrotation
						JOINT LeftShoulder
						{
							OFFSET 6.197824 13.665230 -4.064723
							CHANNELS 3 Zrotation Yrotation Xrotation
							JOINT LeftArm
							{
								OFFSET 7.778132 -0.187073 -1.709282
								CHANNELS 3 Zrotation Yrotation Xrotation
								JOINT LeftForeArm
								{
									OFFSET 21.954697 0.000000 -2.041093
									CHANNELS 3 Zrotation Yrotation Xrotation
									JOINT LeftHand
									{
										OFFSET 22.992908 0.000000 -0.870901
										CHANNELS 3 Zrotation Yrotation Xrotation
										End Site
										{
											OFFSET 0.000000 0.000000 0.000000
										}
									}
								}
							}
						}
					}
					JOINT RightShoulder_virtual
					{
						OFFSET 0.000000 0.000000 0.000000
						CHANNELS 3 Zrotation Yrotation Xrotation
						JOINT RightShoulder
						{
							OFFSET -6.197824 13.665230 -4.064723
							CHANNELS 3 Zrotation Yrotation Xrotation
							JOINT RightArm
							{
								OFFSET -7.778132 -0.187073 -1.709282
								CHANNELS 3 Zrotation Yrotation Xrotation
								JOINT RightForeArm
								{
									OFFSET -21.954697 0.000000 -2.041093
									CHANNELS 3 Zrotation Yrotation Xrotation
									JOINT RightHand
									{
										OFFSET -22.992908 0.000000 -0.870901
										CHANNELS 3 Zrotation Yrotation Xrotation
										End Site
										{
											OFFSET 0.000000 0.000000 0.000000
										}
									}
								}
							}
						}
					}
				}
			}
		}
	}
}
MOTION
Frames: 4
Frame Time: 0.033333
6.412777 81.665924 27.538712 179.990975 -0.193919 -179.894711 -3.821108 -1.759340 10.694802 3.684213 -1.706127 -21.760976 5.377688 4.101898 26.857289 -1.631298 -7.376813 -10.139535 0.000000 0.000000 0.000000 0.055530 -2.561670 10.447993 -5.837318 -0.688626 -21.121464 -0.799513 5.120047 28.393832 8.543936 5.740869 -9.738726 0.000000 0.000000 0.000000 2.956557 0.769022 -1.753694 -5.346138 2.887697 -0.461265 -1.043880 -2.808064 4.924837 0.062439 -0.015909 -0.000938 -1.609373 -1.667146 6.277628 -0.131732 -2.439791 -6.663501 0.000000 0.000000 0.000000 -0.196326 -0.784637 3.281604 14.212891 5.858241 -3.989388 -0.947105 2.367350 -50.731302 -2.466079 -35.791284 -6.593312 0.000000 0.000000 0.000000 -3.933216 0.303588 2.958270 5.758048 -18.959685 -7.631235 6.045753 -6.497179 -42.231012 -0.666809 35.799111 -3.033063 0.000000 0.000000 0.000000 
6.412536 81.669685 27.542896 179.987274 -0.158355 -179.991344 -3.732413 -1.693268 10.721430 3.617801 -1.818686 -21.719897 5.268618 3.992789 27.086850 -1.755461 -7.561289 -10.633224 0.000000 0.000000 0.000000 0.014180 -2.643176 10.476128 -5.824674 -0.546734 -21.115914 -0.843087 5.080693 28.415481 8.445041 5.652966 -9.838523 0.000000 0.000000 0.000000 2.954392 0.725081 -1.693030 -5.335241 2.865028 -0.410280 -1.087394 -2.811162 4.949022 -0.029699 -0.017867 0.011513 -1.520618 -1.523748 6.227773 -0.147310 -2.415845 -6.662656 0.000000 0.000000 0.000000 -0.071250 -0.740077 3.199241 14.197203 5.890445 -3.977204 -0.971843 2.354835 -50.656552 -2.424724 -35.802991 -6.616752 0.000000 0.000000 0.000000 -3.832129 0.433406 2.866957 5.715859 -18.870226 -7.683934 6.063979 -6.609302 -42.220767 -0.563709 35.767515 -2.878502 0.000000 0.000000 0.000000 
6.408493 81.672096 27.542116 -179.970622 -0.162429 -179.988366 -3.771046 -1.651201 10.679685 3.665517 -1.743361 -21.733408 5.248421 3.932564 27.136862 -1.777199 -7.590708 -10.664483 0.000000 0.000000 0.000000 0.060044 -2.664383 10.452968 -5.850959 -0.504926 -21.084049 -0.840642 5.038874 28.409899 8.423545 5.628396 -9.865248 0.000000 0.000000 0.000000 2.996919 0.754396 -1.691473 -5.320632 2.895456 -0.439055 -1.075560 -2.790205 4.929523 -0.035463 0.008113 -0.031441 -1.515109 -1.524802 6.259425 -0.109132 -2.451924 -6.684148 0.000000 0.000000 0.000000 -0.116717 -0.798712 3.314390 14.254676 5.849313 -4.004078 -1.019769 2.265704 -50.733320 -2.436011 -35.780093 -6.640168 0.000000 0.000000 0.000000 -3.854786 0.387970 2.854458 5.733306 -18.913504 -7.594156 6.155324 -6.685244 -42.176845 -0.608974 35.781148 -2.962972 0.000000 0.000000 0.000000 
6.408764 81.674225 27.540098 179.977206 -0.173000 -179.927906 -3.725913 -1.780743 10.639871 3.626067 -1.823425 -21.725887 5.247239 4.045602 27.049637 -1.757289 -7.546497 -10.643675 0.000000 0.000000 0.000000 0.014963 -2.662444 10.396714 -5.822718 -0.641377 -21.089579 -0.844704 5.100168 28.438630 8.437865 5.633015 -9.858361 0.000000 0.000000 0.000000 2.959217 0.763848 -1.750103 -5.347910 2.908085 -0.463058 -1.084606 -2.794144 4.943087 -0.026762 -0.010428 0.010155 -1.525203 -1.515325 6.263171 -0.126543 -2.440586 -6.654529 0.000000 0.000000 0.000000 -0.103096 -0.815555 3.255808 14.195829 5.824922 -3.906411 -0.973646 2.276681 -50.823038 -2.358289 -35.723815 -6.736152 0.000000 0.000000 0.000000 -3.838132 0.307924 2.858097 5.770862 -18.905764 -7.604499 6.151989 -6.591209 -42.168003 -0.704607 35.750337 -3.006895 0.000000 0.000000 0.000000 
